<?xml version="1.0" standalone="no"?>
<!DOCTYPE svg PUBLIC "-//W3C//DTD SVG 20010904//EN"
 "http://www.w3.org/TR/2001/REC-SVG-20010904/DTD/svg10.dtd">
<svg version="1.0" xmlns="http://www.w3.org/2000/svg"
 width="300.000000pt" height="300.000000pt" viewBox="0 0 300.000000 300.000000"
 preserveAspectRatio="xMidYMid meet">
<metadata>
Created by potrace 1.10, written by Peter Selinger 2001-2011
</metadata>
<g transform="translate(0.000000,300.000000) scale(0.100000,-0.100000)"
fill="#000000" stroke="none">
<path d="M2071 2734 c-253 -68 -431 -287 -446 -551 l-4 -63 -323 -4 c-363 -3
-382 -6 -520 -78 -56 -29 -96 -60 -147 -114 -78 -81 -105 -129 -163 -284 -22
-57 -41 -107 -44 -111 -2 -3 -40 7 -84 22 -45 16 -96 29 -113 29 -120 0 -189
-83 -147 -177 26 -58 62 -73 180 -73 51 0 90 -4 90 -10 0 -5 -10 -33 -22 -62
-23 -52 -23 -59 -23 -503 0 -415 1 -453 18 -478 l17 -27 208 0 c248 0 234 -8
242 143 l5 97 700 0 700 0 5 -99 c7 -148 -4 -142 249 -139 l206 3 18 35 c16
32 17 71 14 475 -2 429 -3 441 -25 495 -12 30 -22 58 -22 63 0 4 42 7 93 7
108 0 150 17 179 71 23 43 23 66 -2 106 -46 76 -130 91 -258 45 l-84 -30 -17
42 c-36 82 -36 81 16 119 91 67 158 155 198 260 118 316 -34 651 -353 774 -83
32 -253 41 -341 17z m254 -49 c189 -40 347 -185 405 -374 14 -44 20 -91 20
-160 -1 -158 -53 -276 -174 -388 -104 -98 -218 -143 -361 -143 -141 0 -258 47
-361 143 -121 113 -173 230 -174 388 0 164 55 292 172 402 129 121 299 169
473 132z m-676 -690 c54 -194 210 -349 409 -406 118 -34 240 -26 402 27 11 3
24 -22 53 -102 21 -58 41 -113 44 -120 4 -12 -157 -14 -1061 -14 -586 0 -1066
2 -1066 4 0 16 128 343 151 386 66 124 171 212 313 262 l81 28 329 -3 329 -2
16 -60z m-1313 -499 c73 -25 73 -25 49 -83 l-14 -33 -99 0 c-85 0 -103 3 -126
21 -32 25 -35 70 -6 99 28 28 107 26 196 -4z m2514 4 c29 -29 26 -74 -6 -99
-23 -18 -41 -21 -126 -21 l-99 0 -14 33 c-24 57 -23 58 45 82 85 31 172 33
200 5z m-244 -243 c21 -61 23 -88 25 -278 l1 -209 -1136 -3 -1136 -2 0 211 c0
215 1 222 45 342 3 10 227 12 1091 10 l1087 -3 23 -68z m16 -570 c-5 -37 -52
-95 -96 -117 -42 -20 -57 -20 -1029 -20 -1073 0 -1022 -3 -1081 56 -29 30 -60
89 -52 102 2 4 512 6 1133 4 l1128 -2 -3 -23z m-2241 -123 c7 -8 31 -25 53
-37 34 -18 63 -23 171 -27 l130 -5 3 -88 c3 -81 1 -89 -22 -112 -24 -24 -29
-25 -171 -25 -190 0 -185 -4 -185 159 0 66 -3 126 -6 135 -8 21 10 21 27 0z
m2252 -106 c-2 -68 -3 -129 -3 -135 0 -7 -9 -22 -20 -33 -18 -18 -33 -20 -164
-20 -190 0 -191 1 -191 132 l0 93 130 5 c108 4 137 9 171 27 22 12 46 29 53
37 8 9 16 16 20 16 3 0 5 -55 4 -122z"/>
<path d="M1943 2494 c-3 -9 7 -28 27 -49 46 -48 28 -65 -22 -20 -33 31 -42 34
-55 23 -12 -10 -14 -27 -10 -82 4 -65 7 -72 41 -103 30 -28 43 -33 83 -33 43
0 52 -4 95 -47 l48 -47 -21 -22 -20 -22 -38 21 c-33 18 -42 19 -69 8 -17 -7
-60 -43 -96 -81 -57 -58 -66 -73 -66 -104 0 -30 9 -46 47 -88 84 -89 123 -86
227 21 72 76 82 106 49 161 -15 26 -15 30 0 44 8 9 19 16 23 16 5 0 74 -65
154 -145 81 -80 154 -145 164 -145 45 0 85 40 86 84 0 25 -24 54 -146 176
l-145 147 61 59 c34 33 77 67 96 77 39 20 90 72 100 100 6 19 -29 67 -49 67
-21 0 -99 -76 -116 -114 -10 -22 -44 -66 -75 -96 l-56 -54 -45 44 c-38 37 -45
50 -45 82 0 55 -24 104 -59 122 -42 22 -159 22 -168 0z m152 -54 c13 -14 18
-34 16 -67 -1 -45 2 -50 56 -105 56 -57 57 -58 38 -78 l-19 -21 -56 56 c-52
51 -59 55 -103 55 -38 0 -53 5 -72 25 -30 29 -34 61 -7 49 30 -13 75 -8 89 12
9 12 13 33 10 57 -4 30 -2 37 12 37 10 0 26 -9 36 -20z m405 -9 c-11 -21 -48
-51 -63 -51 -11 0 13 42 32 57 26 20 44 16 31 -6z m-98 -398 c76 -76 138 -143
138 -149 0 -6 -7 -17 -15 -24 -13 -11 -36 8 -155 126 -77 76 -140 143 -140
149 0 11 20 35 29 35 3 0 68 -62 143 -137z m-314 -6 c23 -23 42 -47 42 -53 0
-6 -31 -41 -70 -78 -58 -57 -72 -66 -88 -57 -25 13 -82 78 -82 94 0 17 122
137 140 137 9 0 35 -19 58 -43z"/>
<path d="M545 1151 c-48 -21 -60 -48 -60 -138 0 -83 1 -85 33 -114 l32 -29
254 0 c287 0 273 -4 255 81 -16 72 -64 136 -129 173 -54 31 -57 31 -210 33
-85 2 -164 -1 -175 -6z m309 -52 c24 -6 60 -25 81 -42 35 -28 74 -94 75 -124
0 -10 -51 -13 -224 -13 -215 0 -226 1 -239 20 -20 29 -13 140 10 158 21 15
236 17 297 1z"/>
<path d="M1173 1144 c-3 -8 -1 -20 4 -25 5 -5 135 -8 324 -7 306 3 314 3 314
23 0 20 -8 20 -318 23 -282 2 -318 1 -324 -14z"/>
<path d="M2094 1139 c-107 -41 -174 -145 -165 -256 1 -10 59 -13 256 -13 l255
0 31 28 c28 25 32 35 36 98 3 53 0 77 -14 104 -28 53 -50 60 -208 59 -115 0
-149 -4 -191 -20z m344 -47 c21 -21 22 -132 2 -157 -19 -23 -460 -23 -460 0 0
29 40 94 75 122 51 42 96 51 238 52 108 1 130 -2 145 -17z"/>
<path d="M1177 1027 c-13 -36 3 -37 324 -35 306 3 314 3 314 23 0 20 -8 20
-316 23 -259 2 -318 0 -322 -11z"/>
<path d="M1173 904 c-3 -8 -1 -20 4 -25 5 -5 135 -8 324 -7 306 3 314 3 314
23 0 20 -8 20 -318 23 -282 2 -318 1 -324 -14z"/>
</g>
</svg>
