<?xml version="1.0" standalone="no"?>
<!DOCTYPE svg PUBLIC "-//W3C//DTD SVG 20010904//EN"
 "http://www.w3.org/TR/2001/REC-SVG-20010904/DTD/svg10.dtd">
<svg version="1.0" xmlns="http://www.w3.org/2000/svg"
 width="512.000000pt" height="512.000000pt" viewBox="0 0 512.000000 512.000000"
 preserveAspectRatio="xMidYMid meet">

<g transform="translate(0.000000,512.000000) scale(0.100000,-0.100000)"
fill="#000000" stroke="none">
<path d="M3595 5109 c-278 -35 -529 -156 -755 -361 -155 -141 -848 -842 -912
-923 -76 -96 -143 -209 -187 -316 l-37 -90 -99 -43 c-113 -48 -208 -104 -310
-185 -80 -62 -779 -753 -923 -911 -238 -261 -351 -531 -368 -875 -11 -230 32
-438 135 -650 373 -763 1339 -991 2032 -479 80 59 946 923 1021 1019 76 96
145 213 188 318 l36 89 84 35 c98 40 207 103 306 176 105 77 987 965 1056
1062 114 161 194 345 234 540 27 133 25 393 -4 532 -54 249 -169 469 -347 661
-134 145 -389 300 -587 356 -176 51 -385 67 -563 45z m437 -323 c176 -45 327
-128 457 -251 100 -94 163 -180 222 -300 173 -353 134 -780 -99 -1091 -78
-104 -947 -968 -1027 -1021 -110 -74 -101 -77 -103 41 -1 57 -6 133 -12 168
l-10 65 416 414 c229 228 443 447 475 487 66 82 119 185 145 282 27 101 25
292 -4 395 -74 254 -276 455 -527 521 -202 52 -434 14 -611 -101 -61 -40 -814
-779 -929 -913 -127 -147 -186 -306 -186 -497 0 -211 67 -374 228 -548 83 -90
129 -234 114 -354 -4 -29 -10 -55 -13 -58 -3 -3 -31 8 -62 24 -229 121 -403
313 -496 545 -82 208 -96 442 -40 660 23 92 90 238 150 327 56 84 917 950
1024 1031 128 96 279 161 451 193 118 22 312 13 437 -19z m-152 -582 c153 -34
284 -164 324 -319 30 -111 14 -240 -41 -335 -15 -26 -192 -212 -416 -437
l-390 -392 -53 89 c-127 215 -279 367 -494 494 l-89 53 397 395 c417 415 428
424 547 454 69 17 134 17 215 -2z m-1215 -1161 c356 -215 552 -596 514 -1003
-16 -177 -78 -351 -179 -501 -56 -84 -917 -950 -1024 -1031 -311 -233 -738
-272 -1091 -99 -120 59 -206 122 -300 222 -122 129 -205 278 -252 457 -23 84
-26 118 -27 257 0 185 16 270 82 422 73 171 103 205 591 696 427 429 530 524
621 576 l37 20 1 -103 c1 -57 6 -132 11 -167 l10 -64 -446 -450 c-455 -459
-504 -516 -556 -640 -41 -99 -52 -162 -52 -290 1 -140 17 -211 76 -330 196
-401 705 -537 1085 -290 61 40 814 779 929 913 127 147 186 305 186 497 0 212
-67 374 -228 548 -94 102 -136 255 -107 394 4 20 7 21 31 12 15 -5 54 -26 88
-46z m-749 -885 c101 -132 236 -249 394 -342 l89 -53 -397 -395 c-435 -433
-438 -435 -581 -460 -143 -24 -281 21 -387 126 -137 138 -169 323 -88 507 25
59 61 98 422 461 l395 397 53 -89 c29 -49 74 -118 100 -152z"/>
<path d="M1872 5014 c-42 -22 -73 -65 -79 -114 -6 -39 64 -326 93 -382 60
-118 245 -92 275 39 7 33 1 68 -36 209 -25 93 -53 180 -63 193 -47 63 -127 87
-190 55z"/>
<path d="M805 4396 c-70 -31 -108 -112 -85 -183 13 -40 188 -228 264 -284 65
-48 164 -35 210 28 21 29 32 98 22 139 -4 15 -60 81 -129 152 -152 156 -203
182 -282 148z"/>
<path d="M172 3313 c-93 -45 -108 -171 -28 -241 47 -41 362 -126 420 -113 130
31 155 214 37 276 -38 19 -330 95 -367 95 -16 0 -44 -8 -62 -17z"/>
<path d="M4544 2159 c-42 -12 -91 -69 -100 -115 -8 -46 9 -104 40 -133 29 -27
81 -45 261 -91 155 -40 191 -37 242 16 53 57 56 135 6 194 -35 42 -41 45 -230
95 -182 49 -174 47 -219 34z"/>
<path d="M3985 1210 c-11 -4 -33 -22 -49 -38 -30 -33 -44 -97 -32 -148 11 -43
249 -280 302 -300 114 -44 229 62 194 179 -9 32 -38 68 -119 151 -141 144
-171 166 -230 165 -25 0 -55 -4 -66 -9z"/>
<path d="M3050 669 c-40 -16 -80 -60 -91 -101 -9 -34 -4 -61 36 -211 25 -95
53 -183 63 -196 83 -113 247 -79 269 54 7 45 -71 353 -101 399 -38 56 -114 79
-176 55z"/>
</g>
</svg>
