<?xml version="1.0" standalone="no"?>
<!DOCTYPE svg PUBLIC "-//W3C//DTD SVG 20010904//EN"
 "http://www.w3.org/TR/2001/REC-SVG-20010904/DTD/svg10.dtd">
<svg version="1.0" xmlns="http://www.w3.org/2000/svg"
 width="281.000000pt" height="250.000000pt" viewBox="0 0 281.000000 250.000000"
 preserveAspectRatio="xMidYMid meet">

<g transform="translate(0.000000,250.000000) scale(0.100000,-0.100000)"
fill="#000000" stroke="none">
<path d="M54 2472 c-12 -9 -27 -27 -33 -39 -8 -16 -11 -347 -11 -1183 0 -1066
1 -1164 17 -1190 9 -16 27 -33 40 -39 17 -8 285 -11 876 -11 756 0 855 2 875
16 41 29 52 66 52 179 l0 105 -305 0 c-384 0 -390 1 -472 87 -79 82 -94 82
-142 -4 -27 -50 -41 -65 -69 -74 -57 -19 -80 6 -129 147 -23 65 -43 124 -46
129 -2 6 -16 -29 -32 -77 -47 -146 -111 -200 -241 -202 -56 -1 -76 3 -92 17
-28 26 -35 62 -18 96 18 33 34 41 86 41 78 0 81 4 139 173 55 163 81 203 131
207 91 7 118 -19 165 -160 20 -61 39 -110 41 -110 3 0 19 8 37 17 20 10 56 17
93 17 75 0 141 -35 181 -95 48 -73 53 -60 53 159 l0 197 310 310 310 310 0
110 0 110 -348 0 c-346 0 -347 0 -379 23 -20 14 -37 38 -43 60 -7 24 -10 151
-8 365 l3 327 -510 0 c-468 0 -512 -2 -531 -18z"/>
<path d="M1252 2183 l3 -308 308 -3 307 -2 0 24 c0 14 -5 37 -10 51 -12 32
-483 511 -522 531 -15 8 -41 14 -58 14 l-30 0 2 -307z"/>
<path d="M2465 1851 c-16 -10 -58 -47 -92 -83 l-63 -63 165 -165 c142 -142
167 -163 178 -150 8 8 44 47 80 87 63 68 67 75 67 119 0 46 -2 49 -97 146 -54
55 -110 106 -125 114 -37 19 -77 18 -113 -5z"/>
<path d="M1802 1197 l-392 -392 0 -168 0 -167 163 0 162 0 395 395 395 395
-165 165 -165 165 -393 -393z"/>
</g>
</svg>
