<?xml version="1.0" standalone="no"?>
<!DOCTYPE svg PUBLIC "-//W3C//DTD SVG 20010904//EN"
 "http://www.w3.org/TR/2001/REC-SVG-20010904/DTD/svg10.dtd">
<svg version="1.0" xmlns="http://www.w3.org/2000/svg"
 width="188.000000pt" height="250.000000pt" viewBox="0 0 188.000000 250.000000"
 preserveAspectRatio="xMidYMid meet">

<g transform="translate(0.000000,250.000000) scale(0.100000,-0.100000)"
fill="#000000" stroke="none">
<path d="M1255 2488 c-3 -7 -4 -148 -3 -313 l3 -300 304 -3 c168 -1 309 2 314
7 5 5 4 25 -2 47 -9 32 -57 85 -263 290 -139 139 -262 256 -273 262 -39 18
-75 23 -80 10z"/>
<path d="M59 2475 c-61 -33 -59 16 -58 -1228 0 -850 3 -1140 12 -1166 7 -19
25 -44 40 -55 28 -21 34 -21 866 -24 908 -3 895 -3 935 51 21 28 21 32 21 845
l0 817 -335 2 c-184 2 -345 3 -357 3 -12 0 -35 14 -52 31 l-31 31 0 354 0 354
-507 0 c-421 -1 -513 -3 -534 -15z m1314 -1076 c31 -17 37 -28 37 -73 0 -80
22 -76 -468 -76 -493 0 -472 -3 -472 76 0 34 5 47 26 63 26 20 37 21 441 21
293 0 421 -3 436 -11z m16 -323 c29 -26 29 -96 0 -122 -20 -18 -42 -19 -449
-19 -407 0 -429 1 -449 19 -15 14 -21 31 -21 61 0 41 15 65 50 78 8 3 202 5
431 4 395 -2 418 -3 438 -21z m3 -313 c12 -11 18 -30 18 -57 0 -88 8 -86 -473
-86 -404 0 -415 1 -441 21 -20 16 -26 29 -26 61 0 82 -23 78 468 78 391 0 437
-2 454 -17z"/>
</g>
</svg>
