<?xml version="1.0" standalone="no"?>
<!DOCTYPE svg PUBLIC "-//W3C//DTD SVG 20010904//EN"
 "http://www.w3.org/TR/2001/REC-SVG-20010904/DTD/svg10.dtd">
<svg version="1.0" xmlns="http://www.w3.org/2000/svg"
 width="251.000000pt" height="250.000000pt" viewBox="0 0 251.000000 250.000000"
 preserveAspectRatio="xMidYMid meet">

<g transform="translate(0.000000,250.000000) scale(0.100000,-0.100000)"
fill="#000000" stroke="none">
<path d="M322 2485 c-135 -30 -244 -129 -298 -270 -17 -47 -19 -96 -22 -905
-2 -493 1 -887 6 -932 25 -200 164 -343 361 -369 44 -6 188 -9 328 -7 l250 3
40 27 c44 29 83 96 83 141 0 36 -25 96 -53 125 -45 48 -71 52 -356 52 -267 0
-268 0 -289 23 l-22 23 0 855 0 856 23 21 c23 21 30 22 284 22 271 0 307 5
352 44 30 27 60 92 61 130 0 48 -38 115 -83 144 l-40 27 -281 2 c-211 2 -297
-1 -344 -12z"/>
<path d="M1650 1997 c-76 -40 -111 -140 -76 -220 8 -18 84 -102 170 -187 86
-85 156 -158 156 -162 0 -5 -234 -8 -520 -8 -422 0 -527 -3 -554 -14 -104 -43
-137 -179 -63 -262 58 -67 33 -64 612 -64 289 0 525 -3 525 -8 0 -4 -70 -77
-156 -162 -86 -85 -162 -169 -170 -187 -27 -63 -14 -135 34 -187 51 -55 120
-69 190 -41 46 20 668 635 688 682 17 38 18 101 4 140 -16 41 -636 661 -685
684 -54 25 -103 24 -155 -4z"/>
</g>
</svg>
