<?xml version="1.0" standalone="no"?>
<!DOCTYPE svg PUBLIC "-//W3C//DTD SVG 20010904//EN"
 "http://www.w3.org/TR/2001/REC-SVG-20010904/DTD/svg10.dtd">
<svg version="1.0" xmlns="http://www.w3.org/2000/svg"
 width="512.000000pt" height="512.000000pt" viewBox="0 0 512.000000 512.000000"
 preserveAspectRatio="xMidYMid meet">

<g transform="translate(0.000000,512.000000) scale(0.100000,-0.100000)"
fill="#000000" stroke="none">
<path d="M2155 5113 c-776 -68 -1454 -518 -1814 -1205 -340 -647 -340 -1429 0
-2076 268 -512 718 -900 1259 -1087 l135 -46 1 -97 c0 -63 6 -118 18 -157 65
-219 240 -386 451 -430 104 -22 2256 -22 2359 0 298 63 507 361 465 664 -6 41
-19 97 -30 126 -10 28 -156 288 -323 579 l-305 527 44 107 c113 278 165 544
165 853 0 200 -20 366 -65 544 -189 749 -743 1346 -1475 1589 -278 93 -609
133 -885 109z m25 -1208 l0 -885 -370 0 -370 0 0 58 c0 72 25 308 46 432 80
480 266 911 489 1133 40 40 101 89 136 110 35 20 65 37 66 37 2 0 3 -398 3
-885z m396 835 c80 -52 195 -174 266 -281 208 -311 349 -803 384 -1336 l7
-103 -377 0 -376 0 0 880 c0 1004 -11 910 96 840z m-972 -72 c-4 -7 -19 -31
-34 -53 -129 -192 -250 -487 -325 -790 -54 -220 -105 -580 -105 -747 l0 -58
-375 0 c-350 0 -375 1 -375 18 0 94 62 366 117 512 179 481 566 894 1028 1098
81 36 78 36 69 20z m1616 -64 c330 -168 608 -431 797 -751 136 -232 217 -478
258 -785 l6 -48 -373 0 -374 0 -12 163 c-44 593 -193 1082 -450 1475 -14 22
-14 22 13 12 15 -6 76 -35 135 -66z m-2080 -1944 c0 -73 25 -319 46 -450 69
-434 225 -862 411 -1128 16 -22 16 -22 -13 -12 -56 21 -229 112 -299 157 -411
265 -710 676 -834 1144 -25 94 -61 294 -61 338 0 8 105 11 375 11 l375 0 0
-60z m1040 -532 l0 -593 -117 -202 -117 -203 -24 23 c-39 36 -140 194 -197
307 -153 305 -258 734 -282 1148 l-6 112 371 0 372 0 0 -592z m680 588 c0 -7
-361 -630 -371 -640 -5 -6 -9 123 -9 317 l0 327 190 0 c105 0 190 -2 190 -4z
m657 -29 c28 -15 68 -46 88 -69 36 -42 1052 -1790 1102 -1895 19 -41 24 -69
24 -124 0 -91 -31 -160 -101 -222 -92 -82 -11 -78 -1265 -75 l-1110 3 -46 23
c-149 73 -214 248 -147 392 33 72 1064 1857 1092 1891 31 38 92 80 139 95 63
21 162 12 224 -19z m758 -14 c-24 -181 -72 -394 -93 -415 -6 -6 -258 417 -270
452 -2 6 69 10 183 10 l186 0 -6 -47z"/>
<path d="M3230 1680 l0 -480 150 0 150 0 0 480 0 480 -150 0 -150 0 0 -480z"/>
<path d="M3230 750 l0 -150 150 0 150 0 0 150 0 150 -150 0 -150 0 0 -150z"/>
</g>
</svg>
