<?xml version="1.0" standalone="no"?>
<!DOCTYPE svg PUBLIC "-//W3C//DTD SVG 20010904//EN"
 "http://www.w3.org/TR/2001/REC-SVG-20010904/DTD/svg10.dtd">
<svg version="1.0" xmlns="http://www.w3.org/2000/svg"
 width="194.000000pt" height="250.000000pt" viewBox="0 0 194.000000 250.000000"
 preserveAspectRatio="xMidYMid meet">

<g transform="translate(0.000000,250.000000) scale(0.100000,-0.100000)"
fill="#000000" stroke="none">
<path d="M1741 2479 c-24 -10 -47 -30 -58 -51 -17 -31 -18 -91 -18 -1179 l0
-1145 25 -37 c62 -90 203 -69 239 36 8 20 10 393 8 1163 -2 1126 -2 1133 -23
1160 -49 66 -106 83 -173 53z"/>
<path d="M897 1642 c-15 -9 -36 -35 -47 -58 -19 -39 -20 -65 -20 -747 0 -766
-1 -745 55 -797 22 -21 37 -25 85 -25 51 0 63 4 89 29 17 17 36 46 41 65 6 22
10 305 10 734 0 763 2 738 -59 790 -39 32 -110 37 -154 9z"/>
<path d="M84 820 c-39 -16 -72 -67 -79 -122 -4 -29 -5 -175 -3 -323 3 -241 5
-274 21 -298 67 -102 217 -80 248 36 6 24 9 150 7 330 -3 265 -5 295 -22 323
-10 17 -31 39 -46 48 -30 17 -91 20 -126 6z"/>
</g>
</svg>
