<?xml version="1.0" standalone="no"?>
<!DOCTYPE svg PUBLIC "-//W3C//DTD SVG 20010904//EN"
 "http://www.w3.org/TR/2001/REC-SVG-20010904/DTD/svg10.dtd">
<svg version="1.0" xmlns="http://www.w3.org/2000/svg"
 width="188.000000pt" height="250.000000pt" viewBox="0 0 188.000000 250.000000"
 preserveAspectRatio="xMidYMid meet">

<g transform="translate(0.000000,250.000000) scale(0.100000,-0.100000)"
fill="#000000" stroke="none">
<path d="M574 2490 c-561 -5 -533 -2 -561 -67 -20 -48 -19 -2298 1 -2346 29
-71 -30 -67 921 -67 718 0 860 2 883 14 59 31 57 -4 57 880 l0 811 -357 5
-358 5 -32 33 -33 32 -5 353 -5 352 -511 -5z m190 -313 c14 -10 19 -27 19 -69
0 -31 -4 -61 -7 -67 -10 -16 -438 -15 -454 1 -18 18 -15 108 5 130 15 16 35
18 218 18 151 0 206 -3 219 -13z m9 -316 c11 -11 13 -113 3 -130 -10 -16 -438
-15 -454 1 -7 7 -12 36 -12 64 0 79 1 79 245 77 117 -1 212 -6 218 -12z m231
-467 c11 -11 16 -35 16 -79 l0 -63 37 -7 c44 -8 104 -37 122 -59 18 -22 6 -49
-40 -86 -33 -26 -45 -31 -67 -24 -15 4 -74 8 -132 8 -104 1 -104 1 -120 -26
-13 -25 -13 -31 0 -55 14 -24 35 -34 152 -69 151 -45 187 -66 222 -127 35 -59
41 -113 22 -179 -20 -69 -83 -132 -151 -150 l-45 -12 0 -60 c0 -76 -16 -96
-77 -96 -74 0 -83 10 -83 89 l0 69 -47 11 c-60 15 -123 56 -123 79 0 10 18 35
39 56 35 34 43 38 73 31 18 -4 79 -9 134 -12 97 -4 103 -3 118 19 42 60 11 89
-144 134 -69 20 -142 48 -163 62 -127 86 -123 291 6 367 24 13 58 28 75 31
l32 7 0 68 c0 54 4 70 18 78 27 16 108 13 126 -5z"/>
<path d="M1254 2486 c-2 -6 -3 -146 -2 -311 l3 -300 304 -3 c168 -1 308 1 312
5 5 5 4 26 -1 47 -7 34 -46 77 -268 299 -236 236 -263 260 -301 267 -29 5 -44
4 -47 -4z"/>
</g>
</svg>
