<?xml version="1.0" standalone="no"?>
<!DOCTYPE svg PUBLIC "-//W3C//DTD SVG 20010904//EN"
 "http://www.w3.org/TR/2001/REC-SVG-20010904/DTD/svg10.dtd">
<svg version="1.0" xmlns="http://www.w3.org/2000/svg"
 width="296.000000pt" height="250.000000pt" viewBox="0 0 296.000000 250.000000"
 preserveAspectRatio="xMidYMid meet">

<g transform="translate(0.000000,250.000000) scale(0.100000,-0.100000)"
fill="#000000" stroke="none">
<path d="M535 2300 l-191 -190 -59 61 c-58 58 -101 89 -125 89 -7 0 -43 -30
-81 -67 -102 -98 -103 -93 84 -280 137 -138 156 -153 187 -153 31 0 56 21 293
258 142 141 265 269 273 284 20 38 8 62 -64 131 -96 91 -89 93 -317 -133z"/>
<path d="M1165 2298 c-41 -22 -45 -37 -45 -173 0 -125 1 -133 23 -153 l23 -22
870 0 871 0 21 23 c20 21 22 34 22 154 l0 131 -31 26 -31 26 -851 0 c-597 -1
-858 -4 -872 -12z"/>
<path d="M735 1568 c-11 -6 -103 -93 -205 -194 l-186 -184 -44 46 c-54 56
-118 104 -137 104 -8 0 -46 -30 -84 -67 -102 -98 -103 -93 84 -280 137 -138
156 -153 187 -153 31 0 56 21 293 258 142 141 265 269 273 284 19 37 8 62 -63
129 -63 62 -88 74 -118 57z"/>
<path d="M1180 1383 c-8 -3 -25 -15 -37 -26 -22 -19 -23 -28 -23 -148 0 -70 3
-135 6 -144 18 -45 11 -45 913 -45 l849 0 31 26 31 26 0 132 c0 130 -1 133
-26 157 l-26 24 -851 2 c-469 1 -859 -1 -867 -4z"/>
<path d="M329 549 c-95 -14 -179 -82 -214 -172 -26 -70 -17 -172 21 -234 53
-86 140 -135 240 -135 177 0 309 175 260 344 -40 140 -163 218 -307 197z"/>
<path d="M1146 439 c-26 -20 -26 -22 -26 -155 0 -130 1 -136 25 -159 l24 -25
866 0 866 0 24 25 c24 23 25 29 25 155 0 126 -1 132 -25 155 l-24 25 -864 0
c-859 0 -864 0 -891 -21z"/>
</g>
</svg>
