<?xml version="1.0" standalone="no"?>
<!DOCTYPE svg PUBLIC "-//W3C//DTD SVG 20010904//EN"
 "http://www.w3.org/TR/2001/REC-SVG-20010904/DTD/svg10.dtd">
<svg version="1.0" xmlns="http://www.w3.org/2000/svg"
 width="255.000000pt" height="250.000000pt" viewBox="0 0 255.000000 250.000000"
 preserveAspectRatio="xMidYMid meet">

<g transform="translate(0.000000,250.000000) scale(0.100000,-0.100000)"
fill="#000000" stroke="none">
<path d="M1840 2489 c-156 -17 -260 -68 -376 -184 -88 -87 -140 -177 -169
-290 -19 -77 -19 -224 0 -300 18 -69 72 -190 91 -206 8 -6 14 -15 14 -18 0 -9
-171 -150 -184 -152 -5 -1 -152 142 -327 317 l-319 319 0 96 0 96 -192 117
-191 118 -93 -94 -92 -93 112 -180 112 -180 100 -3 100 -3 319 -320 320 -320
-35 -32 c-20 -18 -238 -201 -485 -408 -334 -280 -454 -386 -468 -413 -23 -49
-22 -127 2 -174 23 -44 113 -134 158 -156 71 -36 184 -9 239 57 15 18 205 227
422 465 l396 433 60 -60 60 -60 -42 -45 c-44 -48 -58 -82 -48 -120 3 -13 148
-168 321 -344 326 -331 354 -354 406 -333 13 5 95 81 183 169 145 146 158 162
158 195 0 20 -9 48 -20 64 -11 15 -159 166 -329 336 -305 303 -309 307 -350
307 -36 0 -49 -7 -96 -49 l-54 -50 -56 57 c-31 32 -57 62 -57 68 0 6 34 49 76
95 42 46 80 87 84 92 3 4 33 -4 66 -19 240 -106 516 -53 704 135 122 122 180
265 180 441 0 78 -19 193 -38 225 -5 10 -70 -48 -210 -187 l-204 -201 -174
174 -174 174 200 200 c110 110 200 203 200 206 0 8 -132 37 -190 42 -25 2 -74
1 -110 -4z m-1521 -2163 c59 -31 67 -102 17 -152 -42 -42 -82 -45 -125 -8 -93
78 0 216 108 160z"/>
</g>
</svg>
